<svg width="95" height="39" viewBox="0 0 95 39" fill="none" xmlns="http://www.w3.org/2000/svg">
<path d="M28.7 1.03951e-05C27.595 1.03951e-05 26.6681 0.374411 25.9193 1.12321C25.1705 1.87201 24.7974 2.79761 24.8 3.90001V11.7H17V27.3H24.8V35.1C24.8 36.205 25.1744 37.1319 25.9232 37.8807C26.672 38.6295 27.5976 39.0026 28.7 39H91.1C92.205 39 93.1319 38.6256 93.8807 37.8768C94.6295 37.128 95.0026 36.2024 95 35.1V3.90001C95 2.79501 94.6256 1.86811 93.8768 1.11931C93.128 0.370513 92.2024 -0.0025896 91.1 1.03951e-05H28.7ZM32.6 7.80001H87.2V31.2H32.6V7.80001Z" fill="black"/>
<rect width="55" height="23" transform="matrix(1 0 0 -1 33 31)" fill="#31E158"/>
<line x1="2.5" y1="-2.5" x2="9.5" y2="-2.5" transform="matrix(1 0 0 -1 0 17)" stroke="#31E158" stroke-width="5" stroke-linecap="round"/>
<line x1="2.5" y1="-2.5" x2="9.4562" y2="-2.5" transform="matrix(0.866025 0.5 0.5 -0.866025 3.34711 4.94965)" stroke="#31E158" stroke-width="5" stroke-linecap="round"/>
<line x1="2.5" y1="-2.5" x2="9.4562" y2="-2.5" transform="matrix(0.866025 -0.5 -0.5 -0.866025 0 29.8015)" stroke="#31E158" stroke-width="5" stroke-linecap="round"/>
</svg>
