<svg width="78" height="39" viewBox="0 0 78 39" fill="none" xmlns="http://www.w3.org/2000/svg">
<path d="M11.7 1.03951e-05C10.595 1.03951e-05 9.6681 0.374411 8.9193 1.12321C8.1705 1.87201 7.7974 2.79761 7.8 3.90001V11.7H0V27.3H7.8V35.1C7.8 36.205 8.1744 37.1319 8.9232 37.8807C9.672 38.6295 10.5976 39.0026 11.7 39H74.1C75.205 39 76.1319 38.6256 76.8807 37.8768C77.6295 37.128 78.0026 36.2024 78 35.1V3.90001C78 2.79501 77.6256 1.86811 76.8768 1.11931C76.128 0.370513 75.2024 -0.0025896 74.1 1.03951e-05H11.7ZM15.6 7.80001H70.2V31.2H15.6V7.80001Z" fill="black"/>
<rect width="38" height="23" transform="matrix(1 0 0 -1 33 31)" fill="#31E158"/>
</svg>
